<!--suppress ALL -->
<svg xmlns="http://www.w3.org/2000/svg" xmlns:xlink="http://www.w3.org/1999/xlink" version="1.1" x="0" y="0" viewBox="3.552713678800501e-15 0.004 512 511.99199999999985" enable-background="new 0 0 512 512" xml:space="preserve" height="84.9716947744513" width="84.97302247792754" class="icon-icon-0" fill="#E77917" data-fill-palette-color="accent" id="icon-0"><g fill="#E77917"><path fill="#E77917" d="M405.953 201.855C400.266 182.855 512 0.004 512 0.004s-264.328 156.367-277.359 150c-21.25-10.367 5.172-58.875 5.172-58.875L51.828 249.605l0 0c-2.781 2.391-5.469 4.891-8.094 7.516-58.312 58.312-58.312 152.844 0 211.141 58.312 58.312 152.844 58.312 211.141 0 6.328-6.328 16.938-20.188 16.938-20.188L448 213.332C448 213.332 411.172 219.363 405.953 201.855zM224.641 437.98c-41.656 41.656-109.188 41.656-150.844 0-41.656-41.648-41.656-109.188 0-150.844s109.188-41.656 150.844 0S266.297 396.332 224.641 437.98z" data-fill-palette-color="accent"></path></g></svg>