<svg xmlns:xlink="http://www.w3.org/1999/xlink" xmlns="http://www.w3.org/2000/svg" viewBox="0 0 395.52 247.2" height="247.2" width="395.52"><g transform="matrix(1,0,0,1,75.54432000000001,93.40434095323417)"><svg viewBox="0 0 244.43135999999996 60.391318093531645" height="60.391318093531645" width="244.43135999999996"><g><svg viewBox="0 0 244.43135999999996 60.391318093531645" height="60.391318093531645" width="244.43135999999996"><g><svg viewBox="0 0 343.9194170767505 84.9716947744513" height="60.391318093531645" width="244.43135999999996"><g transform="matrix(1,0,0,1,0,11.743555500665845)"><svg viewBox="0 0 244.43136 61.4845837731196" height="61.4845837731196" width="244.43136"><g><svg viewBox="0 0 244.43136 61.4845837731196" height="61.4845837731196" width="244.43136"><g><svg viewBox="0 0 244.43136 61.4845837731196" height="61.4845837731196" width="244.43136"><g transform="matrix(1,0,0,1,0,0)"><svg width="244.43136" viewBox="1.55 -30.1 121.64 30.6" height="61.4845837731196" data-palette-color="#e77917"><path d="M17-5.15L17-5.15Q17.7-4.3 18.32-3.53 18.95-2.75 19.6-1.9L19.6-1.9Q18.2-0.8 16.45-0.15 14.7 0.5 12.65 0.5L12.65 0.5Q10.35 0.5 8.33-0.38 6.3-1.25 4.8-2.75 3.3-4.25 2.43-6.25 1.55-8.25 1.55-10.5L1.55-10.5Q1.55-12.75 2.43-14.75 3.3-16.75 4.8-18.23 6.3-19.7 8.33-20.58 10.35-21.45 12.65-21.45L12.65-21.45Q14.75-21.45 16.53-20.8 18.3-20.15 19.75-19.05L19.75-19.05 17-15.8Q16.15-16.5 15.05-16.88 13.95-17.25 12.65-17.25L12.65-17.25Q11.15-17.25 9.9-16.73 8.65-16.2 7.73-15.3 6.8-14.4 6.3-13.18 5.8-11.95 5.8-10.5L5.8-10.5Q5.8-9.05 6.3-7.83 6.8-6.6 7.73-5.68 8.65-4.75 9.9-4.23 11.15-3.7 12.65-3.7L12.65-3.7Q13.95-3.7 15.05-4.08 16.15-4.45 17-5.15ZM21.6-10.5L21.6-10.5Q21.6-12.75 22.47-14.75 23.35-16.75 24.85-18.23 26.35-19.7 28.37-20.58 30.4-21.45 32.75-21.45L32.75-21.45Q35.1-21.45 37.12-20.58 39.15-19.7 40.62-18.23 42.1-16.75 42.92-14.75 43.75-12.75 43.75-10.5L43.75-10.5Q43.75-8.25 42.92-6.25 42.1-4.25 40.62-2.75 39.15-1.25 37.12-0.38 35.1 0.5 32.7 0.5L32.7 0.5Q30.4 0.5 28.37-0.3 26.35-1.1 24.85-2.55 23.35-4 22.47-6.03 21.6-8.05 21.6-10.5ZM25.85-10.45L25.85-10.45Q25.85-9.05 26.37-7.83 26.9-6.6 27.82-5.68 28.75-4.75 29.97-4.23 31.2-3.7 32.6-3.7L32.6-3.7Q34-3.7 35.25-4.23 36.5-4.75 37.42-5.68 38.35-6.6 38.9-7.83 39.45-9.05 39.45-10.45L39.45-10.45Q39.45-11.85 38.9-13.1 38.35-14.35 37.42-15.28 36.5-16.2 35.25-16.73 34-17.25 32.6-17.25L32.6-17.25Q31.2-17.25 29.97-16.73 28.75-16.2 27.82-15.28 26.9-14.35 26.37-13.1 25.85-11.85 25.85-10.45ZM48.3 0L48.3-20.9 52.05-20.9Q52.15-19.35 52.22-18.07 52.3-16.8 52.4-15.55L52.4-15.55Q53.55-18.25 55.42-19.83 57.3-21.4 60.45-21.45L60.45-21.45Q63.5-21.45 65.34-19.9 67.2-18.35 67.5-15.85L67.5-15.85Q68.75-18.4 70.57-19.9 72.4-21.4 75.5-21.45L75.5-21.45Q78.75-21.45 80.62-19.7 82.5-17.95 82.59-15.2L82.59-15.2 82.59 0 78.3 0 78.3-13.25Q78.19-14.85 77.22-15.98 76.25-17.1 74.05-17.2L74.05-17.2Q71.05-17.2 69.34-15.28 67.65-13.35 67.55-10.35L67.55-10.35 67.55 0 63.3 0 63.3-13.25Q63.2-14.85 62.17-15.98 61.15-17.1 59.05-17.2L59.05-17.2Q57.55-17.2 56.34-16.68 55.15-16.15 54.3-15.25 53.45-14.35 53-13.1 52.55-11.85 52.55-10.35L52.55-10.35 52.55 0 48.3 0ZM102.89-5.55L106.09-2.45Q104.59-1.1 102.44-0.3 100.29 0.5 98.04 0.5L98.04 0.5Q95.74 0.5 93.72-0.38 91.69-1.25 90.19-2.73 88.69-4.2 87.82-6.2 86.94-8.2 86.94-10.45L86.94-10.45Q86.94-12.7 87.82-14.7 88.69-16.7 90.19-18.2 91.69-19.7 93.67-20.58 95.64-21.45 97.89-21.45L97.89-21.45Q101.44-21.45 104.07-19.33 106.69-17.2 107.84-13.75L107.84-13.75Q106.29-13.2 104.29-12.4 102.29-11.6 100.14-10.73 97.99-9.85 95.84-9 93.69-8.15 91.84-7.45L91.84-7.45Q92.69-5.75 94.32-4.73 95.94-3.7 97.94-3.7L97.94-3.7Q99.29-3.7 100.67-4.2 102.04-4.7 102.89-5.55L102.89-5.55ZM102.49-14.75L102.49-14.75Q101.89-16 100.59-16.63 99.29-17.25 97.94-17.25L97.94-17.25Q96.49-17.25 95.27-16.7 94.04-16.15 93.14-15.23 92.24-14.3 91.72-13.1 91.19-11.9 91.19-10.65L91.19-10.65Q91.19-10.4 91.22-10.3 91.24-10.2 91.24-10.15L91.24-10.15Q92.54-10.65 94.07-11.28 95.59-11.9 97.09-12.53 98.59-13.15 99.99-13.73 101.39-14.3 102.49-14.75ZM113.34-20.85L113.34-30.1 117.59-30.1 117.59-20.85 123.19-20.85 123.19-17.05 117.59-17.05 117.59 0 113.34 0 113.34-17.05 109.59-17.05 109.59-20.85 113.34-20.85Z" opacity="1" transform="matrix(1,0,0,1,0,0)" fill="#E77917" class="undefined-text-0" data-fill-palette-color="primary" id="text-0"></path></svg></g></svg></g></svg></g></svg></g><g transform="matrix(1,0,0,1,258.946394598823,0)"><svg viewBox="0 0 84.97302247792754 84.9716947744513" height="84.9716947744513" width="84.97302247792754"><g><svg xmlns="http://www.w3.org/2000/svg" xmlns:xlink="http://www.w3.org/1999/xlink" version="1.1" x="0" y="0" viewBox="3.552713678800501e-15 0.004 512 511.99199999999985" enable-background="new 0 0 512 512" xml:space="preserve" height="84.9716947744513" width="84.97302247792754" class="icon-icon-0" fill="#E77917" data-fill-palette-color="accent" id="icon-0"><g fill="#E77917"><path fill="#E77917" d="M405.953 201.855C400.266 182.855 512 0.004 512 0.004s-264.328 156.367-277.359 150c-21.25-10.367 5.172-58.875 5.172-58.875L51.828 249.605l0 0c-2.781 2.391-5.469 4.891-8.094 7.516-58.312 58.312-58.312 152.844 0 211.141 58.312 58.312 152.844 58.312 211.141 0 6.328-6.328 16.938-20.188 16.938-20.188L448 213.332C448 213.332 411.172 219.363 405.953 201.855zM224.641 437.98c-41.656 41.656-109.188 41.656-150.844 0-41.656-41.648-41.656-109.188 0-150.844s109.188-41.656 150.844 0S266.297 396.332 224.641 437.98z" data-fill-palette-color="accent"></path></g></svg></g></svg></g></svg></g></svg></g></svg></g><g><path d="M151.089 164.112A122.216 122.216 0 1 0 151.089 83.088L155.029 83.088A118.275 118.275 0 1 1 155.029 164.112L151.089 164.112" fill="#E77917" stroke="#000000" data-fill-palette-color="tertiary" stroke-opacity="0"></path></g></svg>